<svg width="18" height="18" viewBox="0 0 18 18" fill="none" xmlns="http://www.w3.org/2000/svg">
<path fill-rule="evenodd" clip-rule="evenodd" d="M7.14182 6.70024C7.06604 6.88172 6.89519 7.00564 6.69915 7.02129L3.1372 7.30574C2.67113 7.34296 2.48254 7.92496 2.83821 8.22845L5.54903 10.5416C5.6992 10.6697 5.76479 10.8712 5.71882 11.0632L4.8901 14.5239C4.78139 14.9779 5.27478 15.3373 5.67355 15.0947L8.7271 13.2368C8.89473 13.1348 9.10524 13.1348 9.27287 13.2368L12.3264 15.0947C12.7252 15.3373 13.2186 14.9779 13.1099 14.5239L12.2811 11.0632C12.2352 10.8712 12.3008 10.6697 12.4509 10.5416L15.1618 8.22845C15.5174 7.92496 15.3288 7.34296 14.8628 7.30574L11.3008 7.02129C11.1048 7.00564 10.9339 6.88172 10.8582 6.70024L9.48445 3.41028C9.30479 2.97999 8.69518 2.97999 8.51552 3.41028L7.14182 6.70024ZM12.0132 5.5734L10.8686 2.83232C10.1756 1.17264 7.82432 1.17265 7.13134 2.83232L5.98682 5.5734L3.01779 5.8105C1.22009 5.95407 0.492709 8.19892 1.86457 9.3695L4.12094 11.2948L3.43134 14.1746C3.01206 15.9255 4.91513 17.312 6.45322 16.3761L8.99999 14.8266L11.5468 16.3761C13.0848 17.312 14.9879 15.9255 14.5686 14.1746L13.879 11.2948L16.1354 9.3695C17.5073 8.19891 16.7799 5.95406 14.9822 5.8105L12.0132 5.5734Z" fill="#2F3137"/>
</svg>
