<svg width="24" height="24" viewBox="0 0 24 24" fill="none" xmlns="http://www.w3.org/2000/svg">
<path fill-rule="evenodd" clip-rule="evenodd" d="M3 12C3 11.4477 3.44772 11 4 11H20C20.5523 11 21 11.4477 21 12V17C21 19.2091 19.2091 21 17 21H7C4.79086 21 3 19.2091 3 17V12ZM5.5 13C5.22386 13 5 13.2239 5 13.5V17C5 18.1046 5.89543 19 7 19H17C18.1046 19 19 18.1046 19 17V13.5C19 13.2239 18.7761 13 18.5 13H5.5Z" fill="white"/>
<path fill-rule="evenodd" clip-rule="evenodd" d="M19 8H5C4.44772 8 4 8.44772 4 9V10C4 10.5523 4.44772 11 5 11H19C19.5523 11 20 10.5523 20 10V9C20 8.44771 19.5523 8 19 8ZM5 6C3.34315 6 2 7.34315 2 9V10C2 11.6569 3.34315 13 5 13H19C20.6569 13 22 11.6569 22 10V9C22 7.34315 20.6569 6 19 6H5Z" fill="white"/>
<path d="M11 6H13V21H11V6Z" fill="white"/>
<path fill-rule="evenodd" clip-rule="evenodd" d="M10 8C8.34315 8 7 6.65685 7 5C7 3.34315 8.34315 2 10 2C10.7684 2 11.4692 2.28885 12 2.76389C12.5308 2.28885 13.2316 2 14 2C15.6569 2 17 3.34315 17 5C17 6.65685 15.6569 8 14 8H10ZM10 4C10.5523 4 11 4.44772 11 5V6H10C9.44772 6 9 5.55228 9 5C9 4.44772 9.44772 4 10 4ZM13 6H14C14.5523 6 15 5.55228 15 5C15 4.44772 14.5523 4 14 4C13.4477 4 13 4.44772 13 5V6Z" fill="white"/>
</svg>
